<svg width="200" height="200" viewBox="0 0 200 200" fill="none" xmlns="http://www.w3.org/2000/svg">
<path fill-rule="evenodd" clip-rule="evenodd" d="M92.8889 74.3111C86.7556 62.2222 76.0889 53.2444 63.3778 49.5111C48.3556 45.0667 32.9778 48.0889 23.8222 57.1556C17.4222 63.5556 14.7556 69.9556 14.4 79.2C13.9556 88.5333 15.2889 95.1111 18.7556 102.222C24.2667 113.156 33.5111 120.711 47.2889 125.333C60.2667 129.778 61.8667 129.6 53.3333 124.711C43.1111 118.933 33.6 109.6 32 103.733C31.0222 100.089 31.1111 99.0222 32.3556 95.5556C36.9778 83.4667 52.8889 83.5556 65.7778 95.6444L70.2222 99.8222V107.022C70.3111 110.933 70.8444 115.822 71.5556 117.778C72.2667 119.733 72.8889 122.756 72.8889 124.444C72.8889 128.978 74.4 130.578 83.9111 136C88.5333 138.667 92.3556 141.156 92.4444 141.511C92.4444 141.956 89.4222 142.222 85.7778 142.222C80.7111 142.222 79.1111 142.489 79.1111 143.467C79.1111 145.689 81.6889 151.911 83.9111 155.289C85.2444 157.156 86.2222 159.733 86.2222 161.156C86.2222 167.2 92.1778 174.489 98.0444 175.556C101.333 176.178 106.756 174.044 109.511 170.933C111.644 168.533 113.778 163.2 113.778 160.089C113.778 158.667 114.222 157.156 114.756 156.8C116.089 156 120.889 145.778 120.889 143.733C120.889 142.4 120 142.222 114.222 142.222C110.578 142.222 107.556 141.956 107.556 141.511C107.556 141.156 110.489 139.378 114.133 137.511C123.467 132.533 127.111 128.978 127.111 124.711C127.111 122.844 127.733 119.378 128.444 116.889C129.244 114.489 129.778 109.778 129.689 106.4C129.511 100.358 129.6 100.267 133.418 96.3594L133.422 96.3556C140.622 89.0667 152.533 84.8 159.378 87.0222C165.956 89.2444 169.867 96.9778 168 104C166.489 109.511 156.711 119.022 146.667 124.711C142.489 127.111 139.911 128.8 140.889 128.533C151.644 125.867 155.111 124.711 160.444 122.133C176.533 114.578 185.778 99.8222 185.778 81.6889C185.778 72.7111 184.178 67.2889 179.644 61.1556C172.8 51.9111 164.089 47.8222 151.111 47.7333C131.733 47.6444 115.733 57.2444 107.111 74.3111L104.711 79.1111H100H95.2889L92.8889 74.3111Z" fill="white"/>
</svg>
