<svg width="225" height="225" viewBox="0 0 225 225" fill="none" xmlns="http://www.w3.org/2000/svg">
<path d="M0 112.5V225H112.5H225V112.5V-3.35276e-06H112.5H0V112.5ZM71.3 55.7C85.6 59.9 97.6 70 104.5 83.6L107.2 89H112.5H117.8L120.5 83.6C130.2 64.4 148.2 53.6 170 53.7C184.6 53.8 194.4 58.4 202.1 68.8C207.2 75.7 209 81.8 209 91.9C209 112.3 198.6 128.9 180.5 137.4C174.5 140.3 170.6 141.6 158.5 144.6C157.4 144.9 160.3 143 165 140.3C176.3 133.9 187.3 123.2 189 117C191.1 109.1 186.7 100.4 179.3 97.9C171.6 95.4 158.2 100.2 150.1 108.4C145.8 112.8 145.7 112.9 145.9 119.7C146 123.5 145.4 128.8 144.5 131.5C143.7 134.3 143 138.2 143 140.3C143 145.1 138.9 149.1 128.4 154.7C124.3 156.8 121 158.8 121 159.2C121 159.7 124.4 160 128.5 160C135 160 136 160.2 136 161.7C136 164 130.6 175.5 129.1 176.4C128.5 176.8 128 178.5 128 180.1C128 183.6 125.6 189.6 123.2 192.3C120.1 195.8 114 198.2 110.3 197.5C103.7 196.3 97 188.1 97 181.3C97 179.7 95.9 176.8 94.4 174.7C91.9 170.9 89 163.9 89 161.4C89 160.3 90.8 160 96.5 160C100.6 160 104 159.7 104 159.2C103.9 158.8 99.6 156 94.4 153C83.7 146.9 82 145.1 82 140C82 138.1 81.3 134.7 80.5 132.5C79.7 130.3 79.1 124.8 79 120.4V112.3L74 107.6C59.5 94 41.6 93.9 36.4 107.5C35 111.4 34.9 112.6 36 116.7C37.8 123.3 48.5 133.8 60 140.3C69.6 145.8 67.8 146 53.2 141C37.7 135.8 27.3 127.3 21.1 115C17.2 107 15.7 99.6 16.2 89.1C16.6 78.7 19.6 71.5 26.8 64.3C37.1 54.1 54.4 50.7 71.3 55.7Z" fill="black"/>
</svg>
